<?xml version="1.0" encoding="UTF-8"?>
<!DOCTYPE svg PUBLIC "-//W3C//DTD SVG 1.1 Tiny//EN" "http://www.w3.org/Graphics/SVG/1.1/DTD/svg11-tiny.dtd">
<svg xmlns="http://www.w3.org/2000/svg" xmlns:xlink="http://www.w3.org/1999/xlink" baseProfile="tiny" height="200" version="1.0" width="200" viewBox="-15 -15 230 230">
<defs>
<linearGradient id="linearGradient3645">
<stop offset="0" style="stop-color:#8488ae;stop-opacity:1"/>
<stop offset="0.16110203" style="stop-color:#f0f1f6;stop-opacity:1"/>
<stop offset="0.34024504" style="stop-color:#8386ae;stop-opacity:1"/>
<stop offset="1" style="stop-color:#2b2d41;stop-opacity:1"/>
</linearGradient>
<linearGradient id="linearGradient3238">
<stop offset="0" style="stop-color:#ffffff;stop-opacity:1"/>
<stop offset="1" style="stop-color:#dcead2;stop-opacity:1"/>
</linearGradient>
<linearGradient id="linearGradient3705">
<stop offset="0" style="stop-color:#8488ae;stop-opacity:1"/>
<stop offset="0.08712943" style="stop-color:#f0f1f6;stop-opacity:1"/>
<stop offset="0.21421763" style="stop-color:#8386ae;stop-opacity:1"/>
<stop offset="1" style="stop-color:#2b2d41;stop-opacity:1"/>
</linearGradient>
<linearGradient id="linearGradient3697">
<stop offset="0" style="stop-color:#cefbac;stop-opacity:1"/>
<stop offset="1" style="stop-color:#415d2c;stop-opacity:1"/>
</linearGradient>
<linearGradient id="linearGradient3660">
<stop offset="0" style="stop-color:#9f0000;stop-opacity:1"/>
<stop offset="1" style="stop-color:#ff9b9b;stop-opacity:1"/>
</linearGradient>
<linearGradient id="linearGradient3644">
<stop offset="0" style="stop-color:#009217;stop-opacity:1"/>
<stop offset="1" style="stop-color:#a3ffb7;stop-opacity:1"/>
</linearGradient>
<linearGradient id="linearGradient3574">
<stop offset="0" style="stop-color:#2c2887;stop-opacity:1"/>
<stop offset="1" style="stop-color:#617da6;stop-opacity:1"/>
</linearGradient>
<linearGradient id="linearGradient3566">
<stop offset="0" style="stop-color:#4b4b4b;stop-opacity:1"/>
<stop offset="1" style="stop-color:#363636;stop-opacity:1"/>
</linearGradient>
<linearGradient gradientTransform="matrix(0.5651741,0.1260524,0,0.5651741,27.830849,102.30862)" gradientUnits="userSpaceOnUse" x1="180" x2="180" xlink:href="#linearGradient3697" y1="160" y2="20"/>
<linearGradient gradientTransform="matrix(0.5651741,0.1260524,0,0.5651741,27.830849,102.30862)" gradientUnits="userSpaceOnUse" x1="180" x2="180" xlink:href="#linearGradient3238" y1="15" y2="95"/>
<linearGradient gradientUnits="userSpaceOnUse" x1="226.83372" x2="253.49989" xlink:href="#linearGradient3566" y1="350.16666" y2="350.16666"/>
<linearGradient gradientUnits="userSpaceOnUse" x1="150" x2="260" xlink:href="#linearGradient3574" y1="350" y2="350"/>
<linearGradient gradientUnits="userSpaceOnUse" x1="210" x2="230" xlink:href="#linearGradient3660" y1="350" y2="350"/>
<linearGradient gradientTransform="matrix(0.7799175,0.1741401,0,0.8034398,-2.5615477,-45.940707)" gradientUnits="userSpaceOnUse" x1="150" x2="260" xlink:href="#linearGradient3574" y1="350" y2="350"/>
<linearGradient gradientUnits="userSpaceOnUse" x1="203" x2="213.5" xlink:href="#linearGradient3645" y1="262.5" y2="287.5"/>
<linearGradient gradientTransform="matrix(0.7799175,0.1741401,0,0.8034398,-2.5615477,-45.940707)" gradientUnits="userSpaceOnUse" x1="202.02335" x2="202.02335" xlink:href="#linearGradient3574" y1="337.0014" y2="368.11761"/>
<linearGradient gradientUnits="userSpaceOnUse" x1="203" x2="213.5" xlink:href="#linearGradient3645" y1="262.5" y2="287.5"/>
<linearGradient gradientTransform="matrix(0.7799175,0.1741401,0,0.8034398,-2.5615477,-45.940707)" gradientUnits="userSpaceOnUse" x1="202.02335" x2="202.02335" xlink:href="#linearGradient3574" y1="337.0014" y2="368.11761"/>
<linearGradient gradientUnits="userSpaceOnUse" x1="125" x2="125" xlink:href="#linearGradient3574" y1="120" y2="220"/>
<linearGradient gradientUnits="userSpaceOnUse" x1="203" x2="213.5" xlink:href="#linearGradient3645" y1="262.5" y2="287.5"/>
<linearGradient gradientTransform="matrix(0.7799175,0.1741401,0,0.8034398,-2.5615477,-45.940707)" gradientUnits="userSpaceOnUse" x1="202.02335" x2="202.02335" xlink:href="#linearGradient3574" y1="337.0014" y2="368.11761"/>
<linearGradient gradientTransform="matrix(0.5651741,0.1260524,0,0.5651741,27.830849,102.30862)" gradientUnits="userSpaceOnUse" x1="180" x2="180" xlink:href="#linearGradient3238" y1="15" y2="95"/>
<linearGradient gradientTransform="matrix(0.5651741,0.1260524,0,0.5651741,27.830849,102.30862)" gradientUnits="userSpaceOnUse" x1="180" x2="180" xlink:href="#linearGradient3238" y1="15" y2="95"/>
<linearGradient gradientTransform="matrix(0.5651741,0.1260524,0,0.5651741,130.62013,304.68845)" gradientUnits="userSpaceOnUse" x1="180" x2="180" xlink:href="#linearGradient3238" y1="15" y2="95"/>
<linearGradient gradientTransform="translate(102.78928,202.37983)" gradientUnits="userSpaceOnUse" x1="125" x2="125" xlink:href="#linearGradient3574" y1="120" y2="220"/>
<linearGradient gradientTransform="matrix(0.5651741,0.1260524,0,0.5651741,130.62013,304.68845)" gradientUnits="userSpaceOnUse" x1="180" x2="180" xlink:href="#linearGradient3697" y1="160" y2="20"/>
<linearGradient gradientTransform="translate(102.78928,202.37983)" gradientUnits="userSpaceOnUse" x1="167.17142" x2="197.64285" xlink:href="#linearGradient3705" y1="137.35715" y2="229.4286"/>
<linearGradient gradientTransform="matrix(0.7799175,0.1741401,0,0.8034398,-2.5615477,-45.940707)" gradientUnits="userSpaceOnUse" x1="202.02335" x2="202.02335" xlink:href="#linearGradient3574" y1="337.0014" y2="368.11761"/>
<linearGradient gradientTransform="matrix(0.7799175,0.1741401,0,0.8034398,55.719702,115.37179)" gradientUnits="userSpaceOnUse" x1="202.02335" x2="202.02335" xlink:href="#linearGradient3574" y1="337.0014" y2="368.11761"/>
<linearGradient gradientTransform="matrix(0.7799175,0.1741401,0,0.8034398,55.719702,115.37179)" gradientUnits="userSpaceOnUse" x1="229.55365" x2="239.44693" xlink:href="#linearGradient3566" y1="328.67477" y2="358.2731"/>
<linearGradient gradientTransform="translate(58.28125,161.3125)" gradientUnits="userSpaceOnUse" x1="203" x2="213.5" xlink:href="#linearGradient3645" y1="262.5" y2="287.5"/>
<linearGradient gradientTransform="translate(-65.65716,184.05714)" gradientUnits="userSpaceOnUse" x1="142.99036" x2="150.50035" xlink:href="#linearGradient3566" y1="105.10922" y2="113.33373"/>
<linearGradient gradientTransform="translate(-65.65716,184.05714)" gradientUnits="userSpaceOnUse" x1="118.16663" x2="121.15719" xlink:href="#linearGradient3566" y1="98.832779" y2="109.10943"/>
<linearGradient gradientTransform="translate(-79.54699,184.05714)" gradientUnits="userSpaceOnUse" x1="153" x2="148" xlink:href="#linearGradient3238" y1="37" y2="61"/>
<linearGradient gradientTransform="translate(-66.490539,183.72379)" gradientUnits="userSpaceOnUse" x1="148" x2="151" xlink:href="#linearGradient3660" y1="109" y2="116"/>
<linearGradient gradientTransform="translate(-66.490539,183.72379)" gradientUnits="userSpaceOnUse" x1="120" x2="123" xlink:href="#linearGradient3644" y1="103" y2="113"/>
<linearGradient gradientTransform="translate(-65.65716,184.05714)" gradientUnits="userSpaceOnUse" x1="142.99036" x2="150.50035" xlink:href="#linearGradient3566" y1="105.10922" y2="113.33373"/>
<linearGradient gradientTransform="translate(-65.65716,184.05714)" gradientUnits="userSpaceOnUse" x1="118.16663" x2="121.15719" xlink:href="#linearGradient3566" y1="98.832779" y2="109.10943"/>
<linearGradient gradientTransform="translate(-79.54699,184.05714)" gradientUnits="userSpaceOnUse" x1="153" x2="148" xlink:href="#linearGradient3238" y1="37" y2="61"/>
<linearGradient gradientTransform="translate(-66.490539,183.72379)" gradientUnits="userSpaceOnUse" x1="148" x2="151" xlink:href="#linearGradient3660" y1="109" y2="116"/>
<linearGradient gradientTransform="translate(-66.490539,183.72379)" gradientUnits="userSpaceOnUse" x1="120" x2="123" xlink:href="#linearGradient3644" y1="103" y2="113"/>
<linearGradient gradientTransform="translate(-65.65716,184.05714)" gradientUnits="userSpaceOnUse" x1="142.99036" x2="150.50035" xlink:href="#linearGradient3566" y1="105.10922" y2="113.33373"/>
<linearGradient gradientTransform="translate(-65.65716,184.05714)" gradientUnits="userSpaceOnUse" x1="129" x2="138" xlink:href="#linearGradient3566" y1="106" y2="117"/>
<linearGradient gradientTransform="translate(-65.65716,184.05714)" gradientUnits="userSpaceOnUse" x1="115" x2="135" xlink:href="#linearGradient3574" y1="25" y2="130"/>
<linearGradient gradientTransform="translate(-66.490539,183.72379)" gradientUnits="userSpaceOnUse" x1="141" x2="133" xlink:href="#linearGradient3566" y1="129" y2="109"/>
<linearGradient gradientTransform="translate(-23.099799,223.35415)" gradientUnits="userSpaceOnUse" x1="120" x2="123" xlink:href="#linearGradient3644" y1="103" y2="113"/>
<linearGradient gradientTransform="translate(-23.099799,223.35415)" gradientUnits="userSpaceOnUse" x1="141" x2="133" xlink:href="#linearGradient3566" y1="129" y2="109"/>
<linearGradient gradientTransform="translate(-23.099799,223.35415)" gradientUnits="userSpaceOnUse" x1="148" x2="151" xlink:href="#linearGradient3660" y1="109" y2="116"/>
<linearGradient gradientTransform="translate(-22.26642,223.6875)" gradientUnits="userSpaceOnUse" x1="115" x2="135" xlink:href="#linearGradient3574" y1="25" y2="130"/>
<linearGradient gradientTransform="translate(-36.15625,223.6875)" gradientUnits="userSpaceOnUse" x1="153" x2="148" xlink:href="#linearGradient3238" y1="37" y2="61"/>
<linearGradient gradientTransform="translate(-22.26642,223.6875)" gradientUnits="userSpaceOnUse" x1="129" x2="138" xlink:href="#linearGradient3566" y1="106" y2="117"/>
<linearGradient gradientTransform="translate(-22.26642,223.6875)" gradientUnits="userSpaceOnUse" x1="118.16663" x2="121.15719" xlink:href="#linearGradient3566" y1="98.832779" y2="109.10943"/>
<linearGradient gradientTransform="translate(-22.26642,223.6875)" gradientUnits="userSpaceOnUse" x1="141.11017" x2="135.11017" xlink:href="#linearGradient3697" y1="113" y2="44"/>
<linearGradient gradientTransform="translate(-22.26642,223.6875)" gradientUnits="userSpaceOnUse" x1="142.99036" x2="150.50035" xlink:href="#linearGradient3566" y1="105.10922" y2="113.33373"/>
<linearGradient gradientTransform="matrix(0.5651741,0.1260524,0,0.5651741,27.830849,102.30862)" gradientUnits="userSpaceOnUse" x1="180" x2="180" xlink:href="#linearGradient3238" y1="15" y2="95"/>
<linearGradient gradientTransform="translate(-65.65716,184.05714)" gradientUnits="userSpaceOnUse" x1="129" x2="138" xlink:href="#linearGradient3566" y1="106" y2="117"/>
<linearGradient gradientTransform="translate(-65.65716,184.05714)" gradientUnits="userSpaceOnUse" x1="115" x2="135" xlink:href="#linearGradient3574" y1="25" y2="130"/>
<linearGradient gradientTransform="translate(-66.490539,183.72379)" gradientUnits="userSpaceOnUse" x1="141" x2="133" xlink:href="#linearGradient3566" y1="129" y2="109"/>
<linearGradient gradientTransform="matrix(0.5651741,0.1260524,0,0.5651741,27.830849,102.30862)" gradientUnits="userSpaceOnUse" x1="180" x2="180" xlink:href="#linearGradient3238" y1="15" y2="95"/>
<linearGradient gradientTransform="matrix(0.5651741,0.1260524,0,0.5651741,27.830849,102.30862)" gradientUnits="userSpaceOnUse" x1="180" x2="180" xlink:href="#linearGradient3238" y1="15" y2="95"/>
<linearGradient gradientTransform="translate(-65.65716,184.05714)" gradientUnits="userSpaceOnUse" x1="129" x2="138" xlink:href="#linearGradient3566" y1="106" y2="117"/>
<linearGradient gradientTransform="translate(-65.65716,184.05714)" gradientUnits="userSpaceOnUse" x1="115" x2="135" xlink:href="#linearGradient3574" y1="25" y2="130"/>
<linearGradient gradientTransform="translate(-66.490539,183.72379)" gradientUnits="userSpaceOnUse" x1="141" x2="133" xlink:href="#linearGradient3566" y1="129" y2="109"/>
<linearGradient gradientUnits="userSpaceOnUse" id="linearGradient3876" x1="203" x2="213.5" xlink:href="#linearGradient3645" y1="262.5" y2="287.5"/>
<linearGradient gradientTransform="matrix(0.7799175,0.1741401,0,0.8034398,-2.5615477,-45.940707)" gradientUnits="userSpaceOnUse" id="linearGradient3878" x1="229.55365" x2="239.44693" xlink:href="#linearGradient3566" y1="328.67477" y2="358.2731"/>
<linearGradient gradientTransform="matrix(0.7799175,0.1741401,0,0.8034398,-2.5615477,-45.940707)" gradientUnits="userSpaceOnUse" id="linearGradient3880" x1="202.02335" x2="202.02335" xlink:href="#linearGradient3574" y1="337.0014" y2="368.11761"/>
<linearGradient gradientUnits="userSpaceOnUse" id="linearGradient3882" x1="220.01631" x2="222.26013" xlink:href="#linearGradient3660" y1="342.69824" y2="363.68207"/>
<linearGradient gradientUnits="userSpaceOnUse" id="linearGradient3884" x1="167.17142" x2="197.64285" xlink:href="#linearGradient3705" y1="137.35715" y2="229.4286"/>
<linearGradient gradientTransform="matrix(0.5651741,0.1260524,0,0.5651741,27.830849,102.30862)" gradientUnits="userSpaceOnUse" id="linearGradient3886" x1="180" x2="180" xlink:href="#linearGradient3697" y1="160" y2="20"/>
<linearGradient gradientUnits="userSpaceOnUse" id="linearGradient3888" x1="125" x2="125" xlink:href="#linearGradient3574" y1="120" y2="220"/>
<linearGradient gradientTransform="matrix(0.5651741,0.1260524,0,0.5651741,27.830849,102.30862)" gradientUnits="userSpaceOnUse" id="linearGradient3890" x1="180" x2="180" xlink:href="#linearGradient3238" y1="15" y2="95"/>
<linearGradient gradientTransform="translate(-65.65716,184.05714)" gradientUnits="userSpaceOnUse" id="linearGradient3892" x1="155" x2="180" xlink:href="#linearGradient3705" y1="35" y2="120"/>
<linearGradient gradientTransform="translate(-65.65716,184.05714)" gradientUnits="userSpaceOnUse" id="linearGradient3894" x1="142.99036" x2="150.50035" xlink:href="#linearGradient3566" y1="105.10922" y2="113.33373"/>
<linearGradient gradientTransform="translate(-65.65716,184.05714)" gradientUnits="userSpaceOnUse" id="linearGradient3896" x1="141.11017" x2="135.11017" xlink:href="#linearGradient3697" y1="113" y2="44"/>
<linearGradient gradientTransform="translate(-65.65716,184.05714)" gradientUnits="userSpaceOnUse" id="linearGradient3898" x1="118.16663" x2="121.15719" xlink:href="#linearGradient3566" y1="98.832779" y2="109.10943"/>
<linearGradient gradientTransform="translate(-65.65716,184.05714)" gradientUnits="userSpaceOnUse" id="linearGradient3900" x1="129" x2="138" xlink:href="#linearGradient3566" y1="106" y2="117"/>
<linearGradient gradientTransform="translate(-79.54699,184.05714)" gradientUnits="userSpaceOnUse" id="linearGradient3902" x1="153" x2="148" xlink:href="#linearGradient3238" y1="37" y2="61"/>
<linearGradient gradientTransform="translate(-65.65716,184.05714)" gradientUnits="userSpaceOnUse" id="linearGradient3904" x1="115" x2="135" xlink:href="#linearGradient3574" y1="25" y2="130"/>
<linearGradient gradientTransform="translate(-66.490539,183.72379)" gradientUnits="userSpaceOnUse" id="linearGradient3906" x1="148" x2="151" xlink:href="#linearGradient3660" y1="109" y2="116"/>
<linearGradient gradientTransform="translate(-66.490539,183.72379)" gradientUnits="userSpaceOnUse" id="linearGradient3908" x1="141" x2="133" xlink:href="#linearGradient3566" y1="129" y2="109"/>
<linearGradient gradientTransform="translate(-66.490539,183.72379)" gradientUnits="userSpaceOnUse" id="linearGradient3910" x1="120" x2="123" xlink:href="#linearGradient3644" y1="103" y2="113"/>
</defs>
<g transform="translate(-74.853457,-79.992338)">
<g transform="matrix(1.108727,0,0,1.1087277,-69.527862,-105.63894)">
<g transform="translate(49.475372,-23.56738)">
<path d="M 177.875,274.71875 C 162.99806,281.12283 147.66912,287.07312 133.15625,294.125 C 128.89794,298.84637 130.67175,306.20337 131.09375,311.96875 C 133.03003,319.65334 141.75404,321.31396 148.43974,322.21223 C 170.02273,326.77373 191.54931,332.33587 213.15625,336.34375 C 224.08832,332.91514 234.4122,326.98713 245.18786,322.84699 C 251.87337,320.28876 262.21668,316.48796 260.875,307.4375 C 262.48809,298.88967 256.40109,289.79752 247.44733,289.31396 C 224.96258,284.51038 202.56458,278.84359 180.03125,274.53125 C 179.3125,274.59375 178.59375,274.65625 177.875,274.71875 z" style="fill:#000000;fill-opacity:1;fill-rule:evenodd;stroke:none;stroke-opacity:1"/>
<g transform="translate(18.233016,43.230352)">
<path d="M 162,233.3125 L 159.84375,233.5 L 116.875,251.875 C 115.3691,252.94295 114.4375,254.73495 114.4375,257 L 114.4375,265.75 C 114.4375,270.00382 117.74572,274.17176 121.875,275.09375 L 192.75,290.9375 C 194.59113,291.34859 196.2614,291.03308 197.5625,290.1875 L 235.125,273.90625 C 240,270 240.65626,269.42281 240.65625,265.21875 L 240.65625,260.21875 C 240.65625,254.92425 236.67217,249.79349 231.71875,248.6875 L 163.8125,233.5 C 163.19332,233.36175 162.5831,233.3158 162,233.3125 z" style="fill:url(#linearGradient3876);fill-opacity:1;fill-rule:evenodd;stroke:none;stroke-opacity:1"/>
<path d="M 175,265 L 194.75749,269.41146 L 194.75749,289.49767 L 174.74001,284.76033 L 175,265 z" style="fill:url(#linearGradient3878);fill-opacity:1;fill-rule:evenodd;stroke:none;stroke-width:1px;stroke-linecap:butt;stroke-linejoin:miter;stroke-opacity:1"/>
<path d="M 121.88404,250.99786 C 117.75477,250.07587 114.42608,252.76173 114.42608,257.01553 L 114.42608,265.75294 C 114.42608,270.00675 117.75476,274.17906 121.88404,275.10105 L 192.75904,290.92603 C 196.88831,291.84802 200.217,289.16216 200.217,284.90835 L 200.217,276.17095 C 200.217,271.91713 196.88832,267.74482 192.75904,266.82284 L 121.88404,250.99786 z M 184.61865,269.02245 C 188.9238,269.9837 192.41783,274.36326 192.41783,278.79825 C 192.41783,283.23324 188.9238,286.0525 184.61865,285.09125 C 180.31351,284.12999 176.81948,279.75043 176.81948,275.31545 C 176.81948,270.88046 180.31351,268.0612 184.61865,269.02245 z" style="fill:url(#linearGradient3880);fill-opacity:1;fill-rule:evenodd;stroke:none;stroke-opacity:1"/>
<path d="M 230,350 A 10,10 0 1 1 210,350 A 10,10 0 1 1 230,350 z" style="fill:url(#linearGradient3882);fill-opacity:1;fill-rule:evenodd;stroke:none;stroke-opacity:1" transform="matrix(0.3899587,8.707005e-2,0,0.4017199,98.827727,117.29947)"/>
</g>
</g>
<g transform="translate(56.94975,-33.06618)">
<path d="M 160.30025,200.72243 C 154.20571,201.8283 148.45811,205.15941 143.05025,208.06618 C 136.72338,214.08573 140.71308,224.08957 139.5815,231.75368 C 140.02114,246.82987 138.75365,262.08508 140.11275,277.06618 C 141.80641,285.49445 150.38887,289.72212 158.31257,290.34124 C 179.44589,294.72934 200.43339,300.3532 221.644,304.06618 C 227.64639,303.41464 232.89198,299.56105 238.42525,297.34743 C 245.96552,291.34363 241.86063,280.15238 242.92525,271.90993 C 242.5161,257.12096 243.67303,242.07701 242.48775,227.40993 C 240.3639,217.89514 229.78928,214.67982 221.26605,213.66964 C 201.30247,209.53356 181.42009,204.19579 161.42525,200.69118 C 161.07842,200.93044 160.65894,200.57951 160.30025,200.72243 z" style="fill:#000000;fill-opacity:1;fill-rule:evenodd;stroke:none;stroke-width:1px;stroke-linecap:butt;stroke-linejoin:miter;stroke-opacity:1"/>
<g transform="translate(57.791298,82.17636)">
<path d="M 103.625,120.5 C 102.5495,120.50456 101.27705,120.62584 100.03125,121.0625 C 100.0221,121.06571 100.00914,121.05926 100,121.0625 L 88.21875,126.375 C 85.851846,127.43115 83.78125,129.73075 83.78125,134.5625 L 83.78125,191.09375 C 83.781246,191.09376 83.79027,202.3852 95.09375,204.90625 C 116.94715,209.78028 138.80285,214.65722 160.65625,219.53125 C 164.4716,220.3822 166.98771,219.67701 168.65625,218.34375 C 171.8344,216.98191 175.00081,215.59073 178.1875,214.25 C 183.10924,212.20323 183.125,205.71875 183.125,205.71875 L 183.125,149.1875 C 183.12501,137.88401 171.8125,135.375 171.8125,135.375 L 106.25,120.75 C 106.25,120.75 105.1428,120.49357 103.625,120.5 z" style="fill:url(#linearGradient3884);fill-opacity:1;fill-rule:evenodd;stroke:none;stroke-width:1px;stroke-linecap:butt;stroke-linejoin:miter;stroke-opacity:1"/>
<path d="M 87.174129,132.49934 L 92.82587,128.10812 L 160.64676,143.23441 L 169.12438,150.77694 L 169.12438,212.94609 L 160.64676,216.70705 L 92.82587,201.58076 L 87.174129,194.66849 L 87.174129,132.49934 z" style="fill:url(#linearGradient3886);fill-opacity:1;fill-rule:evenodd;stroke:none;stroke-width:1px;stroke-linecap:butt;stroke-linejoin:miter;stroke-opacity:1"/>
<path d="M 95.086565,125.78646 C 95.086565,125.78646 83.783085,123.26541 83.783085,134.5689 L 83.783085,191.08631 C 83.783085,191.08631 83.783085,202.38979 95.086565,204.91084 C 116.93996,209.78487 138.79336,214.65889 160.64676,219.53292 C 171.95024,222.05397 171.95024,210.75048 171.95024,210.75048 L 171.95024,154.23307 C 171.95024,142.92959 160.64676,140.40854 160.64676,140.40854 L 95.086565,125.78646 z M 99.713925,132.47026 L 156.0194,145.02823 C 156.0194,145.02823 165.73333,147.2024 165.73333,156.89102 L 165.73333,205.31938 C 165.73333,205.31938 165.72833,215.01453 156.0194,212.84912 C 137.24878,208.66266 118.48455,204.47761 99.713925,200.29115 C 90.00499,198.12574 90,188.42836 90,188.42836 L 90,140 C 90,130.31137 99.713925,132.47026 99.713925,132.47026 z" style="fill:url(#linearGradient3888);fill-opacity:1;fill-rule:evenodd;stroke:none;stroke-width:1px;stroke-linecap:butt;stroke-linejoin:miter;stroke-opacity:1"/>
<path d="M 154.78308,148.03757 C 154.39958,147.94641 154.01976,147.86485 153.65273,147.80312 C 134.85733,144.05749 116.04499,138.94414 97.258955,135.70232 C 92.795651,136.37977 93.003437,142.00586 93.320398,146.00374 C 93.496913,151.42848 93.450942,156.80267 93.391045,162.17995 C 106.36733,157.48785 125.11909,163.97101 135.21393,174.29837 C 144.39254,183.6884 152.37936,191.60832 162.27164,193.3498 C 162.19073,179.87678 162.95665,166.56978 161.75944,152.8786 C 160.41917,150.0739 157.46757,148.67565 154.78308,148.03757 z" style="fill:url(#linearGradient3890);fill-opacity:1;fill-rule:evenodd;stroke:none;stroke-width:0.85803461px;stroke-linecap:butt;stroke-linejoin:miter;stroke-opacity:1"/>
</g>
</g>
</g>
<g transform="matrix(1.108727,0,0,1.1087277,42.281479,-39.197604)">
<path d="M 47.625,183.8125 C 41.400706,185.43437 33.209781,186.925 30.34375,193.40625 C 28.306917,203.19815 30.231616,213.69558 29.5625,223.71875 C 29.45692,242.06783 27.661319,262.92905 40,278.0625 C 47.11777,287.34766 61.102258,290.48403 71.492379,284.97589 C 84.100698,282.03932 89.995233,268.68664 90.826809,256.88086 C 91.497217,238.49263 91.184411,220.01424 90.96875,201.625 C 89.881288,193.78992 82.231612,188.93527 74.637502,188.99438 C 65.629072,187.39207 56.66545,184.98053 47.625,183.8125 z" style="fill:#000000;fill-opacity:1;fill-rule:evenodd;stroke:none;stroke-width:0.92996085px;stroke-linecap:butt;stroke-linejoin:miter;stroke-opacity:1"/>
<g transform="translate(-13.497167,-25.319183)">
<path d="M 61.28034,211.11964 C 60.99462,211.13573 60.68081,211.1806 60.37409,211.24464 C 56.99817,211.95055 52.25487,213.8904 48.74909,215.71339 C 46.76742,216.94599 45.06159,219.29281 45.06159,223.02589 C 45.06159,229.6228 45.06159,262.58839 45.06159,262.58839 C 45.0534,262.71891 45.06681,262.77129 45.06159,262.80714 C 45.07227,263.08986 45.06159,264.33242 45.06159,269.18214 C 45.06159,292.27132 55.82221,307.65526 66.56159,309.80714 C 68.68009,310.23163 67.79127,310.05254 69.21784,310.33839 C 69.24609,310.34405 69.21894,310.3636 69.24909,310.36964 C 70.67566,310.65548 69.78683,310.4764 71.90534,310.90089 C 73.80844,311.28222 75.71801,311.22967 77.56159,310.77589 C 81.46634,309.65497 85.19459,308.01451 88.96784,306.52589 C 96.55818,303.28419 102.65534,292.71897 102.65534,275.33839 C 102.65534,270.48867 102.67593,269.24183 102.68659,268.96339 C 102.68137,268.92545 102.66353,268.87844 102.65534,268.74464 C 102.65534,268.74464 102.65534,235.77905 102.65534,229.18214 C 102.65534,222.58523 97.27768,218.18886 94.59284,217.65089 C 92.9856,217.32884 85.727,215.87416 78.53034,214.43214 C 78.50686,214.42744 78.49131,214.40559 78.46784,214.40089 C 71.27116,212.95887 64.01257,211.50419 62.40534,211.18214 C 62.06973,211.11489 61.68403,211.09691 61.28034,211.11964 z" style="fill:url(#linearGradient3892);fill-opacity:1;fill-rule:evenodd;stroke:none;stroke-width:0.92996085px;stroke-linecap:butt;stroke-linejoin:miter;stroke-opacity:1"/>
<path d="M 90.99285,290.29714 L 73.6357,287.60431 L 76.46428,291.37941 L 77.92855,295.04998 L 78.68568,303.08158 L 85.09997,302.2667 L 88.98928,297.02542 L 90.99285,290.29714 z" style="fill:url(#linearGradient3894);fill-opacity:1;fill-rule:evenodd;stroke:none;stroke-width:1px;stroke-linecap:butt;stroke-linejoin:miter;stroke-opacity:1"/>
<path d="M 51.46428,217.40713 L 87.79338,224.88409 L 90.85768,229.12696 L 90.38625,286.64145 L 87.32195,289.47003 L 52.2004,282.39857 L 48.19325,277.44856 L 47.4861,223.94123 L 51.46428,217.40713 z" style="fill:url(#linearGradient3896);fill-opacity:1;fill-rule:evenodd;stroke:none;stroke-width:1px;stroke-linecap:butt;stroke-linejoin:miter;stroke-opacity:1"/>
<path d="M 47.45712,281.9357 L 64.10712,284.76429 L 61.51426,289.52857 L 60.04999,294.34284 L 60,300 L 53.35,296.17858 L 50.63927,291.88572 L 47.45712,281.9357 z" style="fill:url(#linearGradient3898);fill-opacity:1;fill-rule:evenodd;stroke:none;stroke-width:1px;stroke-linecap:butt;stroke-linejoin:miter;stroke-opacity:1"/>
<path d="M 63.39998,307.12144 L 59.81427,298.53573 L 60.80711,290.47143 L 65.80711,285.70715 L 74.57856,288.11428 L 78.16426,295 L 78.87141,302.35715 L 74.34284,309.05714 L 63.39998,307.12144 z" style="fill:url(#linearGradient3900);fill-opacity:1;fill-rule:evenodd;stroke:none;stroke-width:1px;stroke-linecap:butt;stroke-linejoin:miter;stroke-opacity:1"/>
<path d="M 54.76551,222.96339 C 51.57564,223.05661 52.41915,230.54603 52.45301,235.05714 C 52.44242,239.21758 52.42868,243.20505 52.42176,247.24464 C 53.84641,246.79167 55.33067,246.55714 56.82801,246.55714 C 61.82801,246.55714 66.82801,249.05714 69.32801,254.05714 C 73.34753,262.09617 77.39485,270.12382 86.60926,270.36964 C 86.6697,258.36217 86.75795,247.17335 86.45301,235.05714 C 85.84443,229.60959 84.56624,228.95431 80.45301,228.05714 C 73.69448,226.77934 63.45301,225.05714 55.45301,223.05714 C 55.20301,222.99464 54.97817,222.95718 54.76551,222.96339 z" style="fill:url(#linearGradient3902);fill-opacity:1;fill-rule:evenodd;stroke:none;stroke-width:0.92996085px;stroke-linecap:butt;stroke-linejoin:miter;stroke-opacity:1"/>
<path d="M 53.12804,214.72575 C 50.4432,214.18778 45.07671,216.43091 45.07671,223.02783 C 45.07671,229.62474 45.07671,262.59536 45.07671,262.59536 C 45.06852,262.72588 45.0557,262.7732 45.05048,262.80905 C 45.06116,263.09177 45.07671,264.34544 45.07671,269.19516 C 45.07671,292.28434 55.81629,307.66162 66.55567,309.8135 C 68.67417,310.23799 67.77791,310.0584 69.20448,310.34425 C 69.23272,310.34991 69.22678,310.34872 69.25693,310.35476 C 70.6835,310.6406 69.78723,310.46102 71.90574,310.88551 C 82.6451,313.03738 93.38469,301.96394 93.38469,278.87476 C 93.38469,274.02504 93.40025,272.7776 93.41091,272.49916 C 93.40569,272.46122 93.39288,272.40876 93.38469,272.27496 C 93.38469,272.27496 93.38469,239.30434 93.38469,232.70743 C 93.38469,226.11052 88.0182,221.71679 85.33336,221.17882 C 83.72612,220.85677 76.45359,219.39956 69.25693,217.95754 C 69.23345,217.95284 69.22795,217.95173 69.20448,217.94703 C 62.00781,216.50501 54.73527,215.0478 53.12804,214.72575 z M 54.88517,220.48904 C 55.2193,220.54348 55.54231,220.62072 55.88175,220.68873 C 56.56145,220.82492 59.14281,221.34216 61.3105,221.7765 C 67.80298,223.07742 77.59674,225.03982 77.59674,225.03982 C 79.76442,225.47417 82.37201,225.99666 83.05171,226.13285 C 85.7672,226.67696 88.48046,227.22746 88.48046,233.63275 L 88.48046,281.6768 C 88.48046,281.6768 88.48269,288.0581 83.05171,286.96988 C 81.69231,286.69749 79.89135,286.33662 77.59674,285.87684 C 77.59674,285.87684 68.18315,283.99062 61.3105,282.61353 C 59.01589,282.15375 57.24115,281.79814 55.88175,281.52576 C 50.45077,280.43753 50.45301,274.05714 50.45301,274.05714 L 50.45301,226.01309 C 50.45301,220.40846 52.54624,220.10796 54.88517,220.48904 z M 54.46556,284.65137 C 58.32565,285.31619 63.12978,287.13807 61.2056,287.47199 C 58.91324,289.06444 58.89772,292.25186 58.89772,295.4548 C 57.83803,299.034 50.16452,291.09559 50.16452,285.25966 C 50.16452,284.28094 52.1495,284.25247 54.46556,284.65137 z M 82.8419,290.33721 C 85.62014,290.84466 88.3231,291.76376 88.3231,292.9056 C 88.3231,298.74153 80.64958,303.60481 79.5899,299.60094 C 79.5899,296.398 79.60061,293.20962 77.30826,290.69852 C 75.57649,289.70399 79.26988,289.68477 82.8419,290.33721 z M 69.25693,287.92794 C 73.70416,288.81904 77.30826,293.8397 77.30826,299.14376 C 77.30826,304.44782 73.70416,308.02415 69.25693,307.13305 C 64.8097,306.24195 61.2056,301.22129 61.2056,295.91723 C 61.20559,290.61317 64.8097,287.03684 69.25693,287.92794 z" style="fill:url(#linearGradient3904);fill-opacity:1;fill-rule:evenodd;stroke:none;stroke-width:0.92996085px;stroke-linecap:butt;stroke-linejoin:miter;stroke-opacity:1"/>
<path d="M 79.85321,292.16129 C 81.13435,293.90553 79.9785,298.03367 81.35321,298.53629 C 84.06686,297.57454 87.7815,292.01386 82.54071,292.16129 C 81.99401,292.24814 79.25677,291.07536 79.85321,292.16129 z" style="fill:url(#linearGradient3906);fill-opacity:1;fill-rule:evenodd;stroke:none;stroke-width:0.92996085px;stroke-linecap:butt;stroke-linejoin:miter;stroke-opacity:1"/>
<path d="M 66.57196,289.50504 C 59.89093,291.291 62.02758,301.7108 67.04071,304.16129 C 71.70324,307.26537 75.9753,300.88313 74.25946,296.72379 C 73.45766,293.16704 70.68981,289.23914 66.57196,289.50504 z" style="fill:url(#linearGradient3908);fill-opacity:1;fill-rule:evenodd;stroke:none;stroke-width:0.92996085px;stroke-linecap:butt;stroke-linejoin:miter;stroke-opacity:1"/>
<path d="M 51.44696,286.09879 C 52.1478,288.94546 53.84108,291.55294 56.07196,293.44254 C 55.92728,291.35729 56.69691,288.92153 57.32196,287.28629 C 55.38316,286.75957 53.38126,286.11464 51.44696,286.09879 z" style="fill:url(#linearGradient3910);fill-opacity:1;fill-rule:evenodd;stroke:none;stroke-width:0.92996085px;stroke-linecap:butt;stroke-linejoin:miter;stroke-opacity:1"/>
</g>
</g>
<g transform="matrix(1.108727,0,0,1.1087277,41.344837,-118.78066)">
<path d="M 168.40625,222.3125 C 141.53004,234.50774 114.66348,246.72431 87.78125,258.90625 C 96.967744,265.38863 106.11177,271.93106 115.28125,278.4375 C 99.914617,290.69172 83.527585,301.93132 68.790718,314.81175 C 63.930739,320.80656 77.410162,314.30841 80.226246,312.90451 C 104.37079,301.94943 128.50569,290.97303 152.65625,280.03125 C 143.46976,273.54887 134.32573,267.00644 125.15625,260.5 C 140.52288,248.24578 156.90991,237.00618 171.64678,224.12575 C 177.08984,219.30583 170.76806,222.5639 168.40625,222.3125 z" style="fill:#000000;fill-opacity:1;fill-rule:evenodd;stroke:none;stroke-width:0.60950214px;stroke-linecap:butt;stroke-linejoin:miter;stroke-opacity:1"/>
<path d="M 71.22242,314.81257 L 148.65219,279.65537 L 121.79077,260.56839 L 169.22279,224.13487 L 91.793005,259.29208 L 118.65443,278.37904 L 71.22242,314.81257 z" style="fill:#ffff00;fill-opacity:1;fill-rule:evenodd;stroke:none;stroke-width:0.60950214px;stroke-linecap:butt;stroke-linejoin:miter;stroke-opacity:1"/>
<path d="M 154.25,232.6875 C 136.95933,240.53345 113.41566,251.3728 96.125,259.21875 L 108,261 L 154.25,232.6875 z M 118.96875,260.71875 L 110.5,262 L 132.5,276.75 L 144.46875,279.375 C 144.54098,279.34223 144.61527,279.31402 144.6875,279.28125 C 136.44365,273.4331 127.21975,266.55678 118.96875,260.71875 z M 120.59375,279.09375 C 108.8864,288.08461 93.17647,299.57212 81.46875,308.5625 L 130.5,278.25 L 120.59375,279.09375 z" style="fill:#eeffa3;fill-opacity:1;fill-rule:evenodd;stroke:none;stroke-width:0.60950214px;stroke-linecap:butt;stroke-linejoin:miter;stroke-opacity:1"/>
</g>
<path d="M 182.54164,172.81955 C 166.04717,179.91993 149.05156,186.51719 132.96074,194.33582 C 128.23944,199.57053 130.20611,207.72741 130.674,214.11967 C 132.8208,222.63976 142.49335,224.48097 149.90597,225.47689 C 173.83561,230.53435 197.70273,236.70123 221.6589,241.14491 C 233.77957,237.34348 245.22595,230.77094 257.1732,226.18068 C 264.58562,223.3443 276.05354,219.13022 274.56596,209.09575 C 276.35446,199.61853 269.60562,189.53781 259.67837,189.00165 C 234.7489,183.67581 209.91565,177.39289 184.9323,172.61167 C 184.13543,172.68096 183.33851,172.75026 182.54164,172.81955 z" style="fill:#000000;fill-opacity:1;fill-rule:evenodd;stroke:none;stroke-opacity:1"/>
<path d="M 185.15601,174.84197 L 182.76535,175.04988 L 135.12472,195.42274 C 133.45509,196.60682 132.4222,198.59366 132.4222,201.10499 L 132.4222,210.80633 C 132.4222,215.52267 136.09011,220.14376 140.66835,221.16601 L 219.2494,238.7324 C 221.29069,239.1882 223.14257,238.8384 224.58511,237.90086 L 266.2317,219.84938 C 271.63675,215.51842 272.36433,214.8785 272.36433,210.21733 L 272.36433,204.6737 C 272.36433,198.80353 267.94708,193.1149 262.45508,191.88869 L 187.1656,175.04988 C 186.4791,174.89659 185.80251,174.84563 185.15601,174.84197 z" style="fill:#526c94;fill-opacity:1;fill-rule:evenodd;stroke:none;stroke-opacity:1"/>
<path d="M 199.56948,209.97479 L 221.47515,214.86592 L 221.47515,237.13603 L 199.28123,231.8836 L 199.56948,209.97479 z" style="fill:#4b4b4b;fill-opacity:1;fill-rule:evenodd;stroke:none;stroke-width:1px;stroke-linecap:butt;stroke-linejoin:miter;stroke-opacity:1"/>
<path d="M 140.67838,194.45024 C 136.10014,193.42798 132.40954,196.4059 132.40954,201.1222 L 132.40954,210.80958 C 132.40954,215.52592 136.10013,220.15188 140.67838,221.17409 L 219.2594,238.71969 C 223.83765,239.74195 227.52823,236.76407 227.52823,232.04773 L 227.52823,222.36035 C 227.52823,217.64401 223.83765,213.01804 219.2594,211.99584 L 140.67838,194.45024 z M 210.23394,214.43459 C 215.00719,215.50038 218.88111,220.35609 218.88111,225.27331 C 218.88111,230.19048 215.00719,233.31627 210.23394,232.25052 C 205.46073,231.18473 201.58677,226.32902 201.58677,221.4118 C 201.58677,216.49463 205.46073,213.36884 210.23394,214.43459 z" style="fill:#2c2887;fill-opacity:1;fill-rule:evenodd;stroke:none;stroke-opacity:1"/>
<path d="M 171.34308,80.2462 C 164.5859,81.472305 158.21338,85.1656 152.21754,88.388416 C 145.20277,95.06246 149.62626,106.154 148.37164,114.6514 C 148.85908,131.36679 147.45378,148.28067 148.96065,164.89062 C 150.83846,174.2353 160.35406,178.92264 169.13928,179.60905 C 192.57035,184.47427 215.83977,190.70961 239.35657,194.82628 C 246.01157,194.1039 251.82749,189.83131 257.96237,187.37702 C 266.3225,180.72043 261.77129,168.31238 262.95166,159.17376 C 262.49799,142.77681 263.78074,126.09717 262.46658,109.83537 C 260.11183,99.28606 248.38745,95.721144 238.93749,94.60113 C 216.80336,90.015342 194.75922,84.097207 172.5904,80.21155 C 172.20586,80.476825 171.74077,80.087737 171.34308,80.2462 z" style="fill:#000000;fill-opacity:1;fill-rule:evenodd;stroke:none;stroke-width:1px;stroke-linecap:butt;stroke-linejoin:miter;stroke-opacity:1"/>
<path d="M 172.58047,82.412572 C 171.38804,82.417631 169.97724,82.552098 168.59598,83.036231 C 168.58584,83.03979 168.57147,83.03264 168.56134,83.036231 L 155.49915,88.92635 C 152.8749,90.09733 150.57917,92.646962 150.57917,98.004058 L 150.57917,160.68182 C 150.57917,160.68183 150.58917,173.20096 163.12164,175.99613 C 187.3511,181.4001 211.5831,186.80731 235.81257,192.21127 C 240.04274,193.15473 242.83241,192.37286 244.68236,190.89465 C 248.20607,189.38473 251.71674,187.84231 255.24991,186.35581 C 260.70679,184.08648 260.72429,176.89697 260.72429,176.89697 L 260.72429,114.2192 C 260.72429,101.68671 248.18178,98.904897 248.18178,98.904897 L 175.49088,82.689756 C 175.49088,82.689756 174.2633,82.405443 172.58047,82.412572 z" style="fill:#526c94;fill-opacity:1;fill-rule:evenodd;stroke:none;stroke-width:1px;stroke-linecap:butt;stroke-linejoin:miter;stroke-opacity:1"/>
<path d="M 154.34095,95.716573 L 160.60719,90.847906 L 235.80203,107.61884 L 245.20141,115.98145 L 245.20141,184.9101 L 235.80203,189.07998 L 160.60719,172.30905 L 154.34095,164.64525 L 154.34095,95.716573 z" style="fill:#72a94e;fill-opacity:1;fill-rule:evenodd;stroke:none;stroke-width:1px;stroke-linecap:butt;stroke-linejoin:miter;stroke-opacity:1"/>
<path d="M 163.11368,88.27382 C 163.11368,88.27382 150.58121,85.478659 150.58121,98.011154 L 150.58121,160.67357 C 150.58121,160.67357 150.58121,173.20605 163.11368,176.00122 C 187.34314,181.40518 211.57256,186.80914 235.80203,192.21311 C 248.33449,195.00828 248.33449,182.47577 248.33449,182.47577 L 248.33449,119.81336 C 248.33449,107.28088 235.80203,104.48572 235.80203,104.48572 L 163.11368,88.27382 z M 168.24416,95.684331 L 230.67157,109.6077 C 230.67157,109.6077 241.44165,112.01826 241.44165,122.76031 L 241.44165,176.45418 C 241.44165,176.45418 241.43611,187.20344 230.67157,184.8026 C 209.86006,180.16097 189.05564,175.52088 168.24416,170.87925 C 157.4796,168.47838 157.47407,157.72663 157.47407,157.72663 L 157.47407,104.03276 C 157.47407,93.290712 168.24416,95.684331 168.24416,95.684331 z" style="fill:#2c2887;fill-opacity:1;fill-rule:evenodd;stroke:none;stroke-width:1px;stroke-linecap:butt;stroke-linejoin:miter;stroke-opacity:1"/>
<path d="M 229.30082,112.94424 C 228.87561,112.84317 228.45448,112.75274 228.04757,112.6843 C 207.2086,108.53141 186.35085,102.8621 165.52227,99.267805 C 160.57368,100.01891 160.80406,106.25672 161.15548,110.68928 C 161.35119,116.70384 161.30022,122.66235 161.23381,128.62429 C 175.62097,123.42203 196.41156,130.61009 207.60398,142.06032 C 217.78056,152.47131 226.63573,161.25234 237.60357,163.18317 C 237.51386,148.24526 238.36307,133.49142 237.0357,118.31162 C 235.54969,115.20198 232.27719,113.6517 229.30082,112.94424 z" style="fill:#acce93;fill-opacity:1;fill-rule:evenodd;stroke:none;stroke-width:0.85803461px;stroke-linecap:butt;stroke-linejoin:miter;stroke-opacity:1"/>
<path d="M 95.084603,164.60041 C 88.18356,166.39862 79.102061,168.05133 75.924414,175.23726 C 73.666122,186.09381 75.800089,197.73261 75.058222,208.84558 C 74.94116,229.18973 72.95033,252.31912 86.630559,269.09802 C 94.522224,279.39273 110.0272,282.87011 121.54701,276.76306 C 135.52619,273.50723 142.06163,258.70271 142.98361,245.61333 C 143.72691,225.22581 143.3801,204.73829 143.14099,184.34964 C 141.93529,175.66268 133.45389,170.28017 125.03409,170.34571 C 115.04621,168.56917 105.10799,165.89546 95.084603,164.60041 z" style="fill:#000000;fill-opacity:1;fill-rule:evenodd;stroke:none;stroke-width:0.92996085px;stroke-linecap:butt;stroke-linejoin:miter;stroke-opacity:1"/>
<path d="M 95.25997,166.8045 C 94.943187,166.82238 94.595257,166.87213 94.255186,166.94313 C 90.512214,167.72575 85.253188,169.87654 81.366237,171.89775 C 79.169107,173.26434 77.277806,175.86634 77.277806,180.0053 C 77.277806,187.31948 77.277806,223.86935 77.277806,223.86935 C 77.268723,224.01406 77.283594,224.07214 77.277806,224.11189 C 77.289648,224.42535 77.277806,225.80302 77.277806,231.18002 C 77.277806,256.77963 89.208393,273.83623 101.11543,276.22211 C 103.46427,276.69273 102.47881,276.49415 104.06049,276.81111 C 104.09181,276.81736 104.06171,276.83906 104.09514,276.84573 C 105.67681,277.16265 104.69135,276.96411 107.04019,277.43477 C 109.15022,277.85757 111.2674,277.79927 113.31143,277.29615 C 117.64073,276.05336 121.77434,274.23456 125.95785,272.58406 C 134.37346,268.98989 141.13355,257.27596 141.13355,238.00561 C 141.13355,232.62861 141.15638,231.24619 141.1682,230.93748 C 141.16241,230.89544 141.14263,230.84331 141.13355,230.69494 C 141.13355,230.69494 141.13355,194.14507 141.13355,186.83089 C 141.13355,179.51672 135.17119,174.64234 132.19444,174.04588 C 130.41245,173.68884 122.36464,172.07601 114.38551,170.47717 C 114.35948,170.47196 114.34224,170.44775 114.31622,170.44255 C 106.33706,168.84371 98.289267,167.23088 96.507291,166.87379 C 96.135191,166.79925 95.707553,166.77933 95.25997,166.8045 z" style="fill:#526c94;fill-opacity:1;fill-rule:evenodd;stroke:none;stroke-width:0.92996085px;stroke-linecap:butt;stroke-linejoin:miter;stroke-opacity:1"/>
<path d="M 128.20303,254.59079 L 108.95869,251.60521 L 112.09482,255.79075 L 113.71829,259.86042 L 114.55774,268.76527 L 121.66944,267.86181 L 125.98162,262.05063 L 128.20303,254.59079 z" style="fill:#4b4b4b;fill-opacity:1;fill-rule:evenodd;stroke:none;stroke-width:1px;stroke-linecap:butt;stroke-linejoin:miter;stroke-opacity:1"/>
<path d="M 84.376642,173.77563 L 124.6557,182.06556 L 128.05317,186.76973 L 127.53048,250.53762 L 124.13301,253.67375 L 85.192796,245.83345 L 80.749962,240.34524 L 79.965924,181.02018 L 84.376642,173.77563 z" style="fill:#72a94e;fill-opacity:1;fill-rule:evenodd;stroke:none;stroke-width:1px;stroke-linecap:butt;stroke-linejoin:miter;stroke-opacity:1"/>
<path d="M 79.933795,245.32024 L 98.3941,248.45637 L 95.519324,253.73867 L 93.895849,259.07638 L 93.840424,265.34864 L 86.467388,261.11172 L 83.461929,256.35213 L 79.933795,245.32024 z" style="fill:#4b4b4b;fill-opacity:1;fill-rule:evenodd;stroke:none;stroke-width:1px;stroke-linecap:butt;stroke-linejoin:miter;stroke-opacity:1"/>
<path d="M 97.610075,273.24439 L 93.634499,263.72518 L 94.735287,254.78404 L 100.27892,249.50175 L 110.00407,252.17062 L 113.97963,259.80501 L 114.76367,267.96206 L 109.74272,275.39052 L 97.610075,273.24439 z" style="fill:#4b4b4b;fill-opacity:1;fill-rule:evenodd;stroke:none;stroke-width:1px;stroke-linecap:butt;stroke-linejoin:miter;stroke-opacity:1"/>
<path d="M 88.036805,179.93601 C 84.500109,180.03935 85.43533,188.3431 85.472871,193.34469 C 85.46113,197.95749 85.445896,202.37849 85.438225,206.85729 C 87.017772,206.35508 88.66341,206.09504 90.323552,206.09504 C 95.867187,206.09504 101.41082,208.86687 104.18264,214.4105 C 108.63919,223.3236 113.12656,232.2241 123.34283,232.49665 C 123.40984,219.18363 123.50769,206.77825 123.16959,193.34469 C 122.49484,187.30485 121.07768,186.57831 116.51723,185.5836 C 109.02386,184.16685 97.668871,182.25739 88.799051,180.03997 C 88.521872,179.97064 88.272585,179.92914 88.036805,179.93601 z" style="fill:#acce93;fill-opacity:1;fill-rule:evenodd;stroke:none;stroke-width:0.92996085px;stroke-linecap:butt;stroke-linejoin:miter;stroke-opacity:1"/>
<path d="M 86.221297,170.80271 C 83.244541,170.20625 77.294569,172.69326 77.294569,180.00747 C 77.294569,187.32164 77.294569,223.87706 77.294569,223.87706 C 77.28549,224.02181 77.271273,224.07426 77.265486,224.11401 C 77.277327,224.42747 77.294569,225.81743 77.294569,231.19444 C 77.294569,256.79409 89.201831,273.84327 101.10887,276.22915 C 103.45771,276.69977 102.464,276.50065 104.04568,276.81761 C 104.07699,276.82386 104.0704,276.82256 104.10383,276.82923 C 105.68551,277.14615 104.69179,276.94706 107.04064,277.41769 C 118.94766,279.80353 130.85493,267.5261 130.85493,241.92649 C 130.85493,236.54948 130.87218,235.1664 130.884,234.85769 C 130.87821,234.81561 130.86401,234.75748 130.85493,234.60911 C 130.85493,234.60911 130.85493,198.05366 130.85493,190.73948 C 130.85493,183.42531 124.90496,178.55389 121.9282,177.95743 C 120.14621,177.60034 112.08296,175.98468 104.10383,174.38588 C 104.0778,174.38067 104.0717,174.37942 104.04568,174.37422 C 96.066537,172.77542 88.003276,171.1598 86.221297,170.80271 z M 88.169472,177.19264 C 88.539935,177.25297 88.898064,177.33864 89.27441,177.41405 C 90.02801,177.56501 92.890036,178.13851 95.293412,178.62005 C 102.4918,180.06243 113.3504,182.23822 113.3504,182.23822 C 115.75377,182.71977 118.64488,183.2991 119.39848,183.4501 C 122.40922,184.05335 125.41748,184.66368 125.41748,191.76544 L 125.41748,245.0332 C 125.41748,245.0332 125.41995,252.10833 119.39848,250.90179 C 117.89127,250.59979 115.8945,250.19966 113.3504,249.68991 C 113.3504,249.68991 102.9133,247.59858 95.293412,246.07179 C 92.749315,245.56199 90.78161,245.16774 89.27441,244.86574 C 83.252933,243.6592 83.255416,236.58507 83.255416,236.58507 L 83.255416,183.31731 C 83.255416,177.1033 85.576238,176.77013 88.169472,177.19264 z M 87.704243,248.3312 C 91.984027,249.06829 97.310496,251.08825 95.177103,251.4585 C 92.635503,253.22408 92.618294,256.75805 92.618294,260.30926 C 91.44339,264.27759 82.935562,255.47609 82.935562,249.00562 C 82.935562,247.9205 85.136363,247.88891 87.704243,248.3312 z M 119.16586,254.63525 C 122.24617,255.19788 125.24301,256.21688 125.24301,257.48288 C 125.24301,263.95334 116.73517,269.34539 115.56028,264.90618 C 115.56028,261.35501 115.57215,257.81996 113.03056,255.03584 C 111.1105,253.93317 115.20546,253.91188 119.16586,254.63525 z M 104.10383,251.964 C 109.03459,252.952 113.03056,258.51855 113.03056,264.3993 C 113.03056,270.28006 109.03459,274.24523 104.10383,273.25723 C 99.173067,272.26927 95.177103,266.70272 95.177103,260.82197 C 95.177095,254.94121 99.173067,250.97604 104.10383,251.964 z" style="fill:#2c2887;fill-opacity:1;fill-rule:evenodd;stroke:none;stroke-width:0.92996085px;stroke-linecap:butt;stroke-linejoin:miter;stroke-opacity:1"/>
<path d="M 115.85221,256.65763 C 117.27265,258.59155 115.99113,263.16851 117.51531,263.72576 C 120.524,262.65947 124.64252,256.49417 118.83192,256.65763 C 118.22578,256.75392 115.19093,255.45363 115.85221,256.65763 z" style="fill:#f8070e;fill-opacity:1;fill-rule:evenodd;stroke:none;stroke-width:0.92996085px;stroke-linecap:butt;stroke-linejoin:miter;stroke-opacity:1"/>
<path d="M 101.12693,253.71258 C 93.719495,255.69271 96.088458,267.24543 101.64665,269.96239 C 106.81612,273.40394 111.55267,266.3278 109.65027,261.71622 C 108.76129,257.77275 105.69251,253.41779 101.12693,253.71258 z" style="fill:#858585;fill-opacity:1;fill-rule:evenodd;stroke:none;stroke-width:0.92996085px;stroke-linecap:butt;stroke-linejoin:miter;stroke-opacity:1"/>
<path d="M 84.357438,249.936 C 85.13448,253.09217 87.011863,255.98313 89.485302,258.07821 C 89.324889,255.76621 90.178198,253.06563 90.87121,251.25258 C 88.72161,250.66862 86.502047,249.95354 84.357438,249.936 z" style="fill:#06da42;fill-opacity:1;fill-rule:evenodd;stroke:none;stroke-width:0.92996085px;stroke-linecap:butt;stroke-linejoin:miter;stroke-opacity:1"/>
<path d="M 228.0614,127.70338 C 198.26302,141.22458 168.47533,154.76943 138.67028,168.27588 C 148.85559,175.46309 158.99382,182.71685 169.16027,189.93073 C 152.12287,203.51733 133.95413,215.97896 117.61496,230.25985 C 112.22658,236.90648 127.17158,229.70181 130.29384,228.14527 C 157.06355,215.99905 183.82255,203.8292 210.59894,191.69777 C 200.41364,184.51056 190.27539,177.2568 180.10897,170.04292 C 197.14635,156.45633 215.31511,143.99467 231.65424,129.71378 C 237.68911,124.3698 230.67999,127.98211 228.0614,127.70338 z" style="fill:#000000;fill-opacity:1;fill-rule:evenodd;stroke:none;stroke-width:0.60950214px;stroke-linecap:butt;stroke-linejoin:miter;stroke-opacity:1"/>
<path d="M 120.31106,230.26077 L 206.15952,191.28102 L 176.37755,170.11875 L 228.96669,129.72389 L 143.11822,168.70367 L 172.90021,189.8659 L 120.31106,230.26077 z" style="fill:#f8d800;fill-opacity:1;fill-rule:evenodd;stroke:none;stroke-width:0.60950214px;stroke-linecap:butt;stroke-linejoin:miter;stroke-opacity:1"/>
<path d="M 212.36598,139.20643 C 193.19535,147.90545 167.09184,159.92334 147.92122,168.62238 L 161.08735,170.5973 L 212.36598,139.20643 z M 173.2487,170.28546 L 163.85917,171.706 L 188.25118,188.05973 L 201.52123,190.97015 C 201.60131,190.93382 201.68368,190.90256 201.76377,190.86623 C 192.6236,184.38223 182.3968,176.75826 173.2487,170.28546 z M 175.05039,190.65831 C 162.07013,200.62674 144.65211,213.36325 131.67144,223.33114 L 186.03372,189.72286 L 175.05039,190.65831 z" style="fill:#f3ffbd;fill-opacity:1;fill-rule:evenodd;stroke:none;stroke-width:0.60950214px;stroke-linecap:butt;stroke-linejoin:miter;stroke-opacity:1"/>
<path d="M 249.07224,99.132884 L 234.09828,104.08081 L 235.79099,104.47143 C 235.79099,104.47143 248.29099,107.30355 248.29099,119.83603 L 248.29099,123.74228 L 260.66079,119.3152 L 260.66079,114.23707 C 260.66079,103.14581 251.33166,99.780685 249.07224,99.132884 z" style="fill:#87a0b3;fill-opacity:1;fill-rule:evenodd;stroke:none;stroke-width:1px;stroke-linecap:butt;stroke-linejoin:miter;stroke-opacity:1"/>
<path d="M 132.92636,174.26317 L 122.24927,178.03922 C 125.29847,178.85284 130.84303,183.69281 130.84303,190.79965 C 130.84303,191.80098 130.84303,194.86057 130.84303,196.78924 L 141.12949,192.10173 C 141.12949,190.51331 141.12949,187.7641 141.12949,186.89339 C 141.12949,180.11518 136.04595,175.38776 132.92636,174.26317 z" style="fill:#87a0b3;fill-opacity:1;fill-rule:evenodd;stroke:none;stroke-width:1px;stroke-linecap:butt;stroke-linejoin:miter;stroke-opacity:1"/>
<path d="M 264.82745,192.75278 L 215.60869,211.24238 L 219.25452,212.02363 C 223.04186,212.86925 226.21157,216.17734 227.19723,219.96634 L 272.11912,202.3882 C 271.32521,198.28036 268.4622,194.53299 264.82745,192.75278 z" style="fill:#87a0b3;fill-opacity:1;fill-rule:evenodd;stroke:none;stroke-width:1px;stroke-linecap:butt;stroke-linejoin:miter;stroke-opacity:1"/>
<path d="M 136.7024,261.11222 L 125.50448,266.71118 C 122.82373,271.62914 119.30643,274.86773 115.47844,276.47681 C 119.00527,275.30315 122.43866,273.93423 125.89511,272.57056 C 130.10292,270.77348 133.96043,266.89876 136.7024,261.11222 z" style="fill:#454a8c;fill-opacity:1;fill-rule:evenodd;stroke:none;stroke-width:1px;stroke-linecap:butt;stroke-linejoin:miter;stroke-opacity:1"/>
<path d="M 271.59829,214.758 L 227.45765,232.72677 C 227.24903,235.42852 225.80369,237.40999 223.68161,238.32574 C 223.98944,238.18999 224.31423,238.11632 224.59307,237.93511 L 266.25975,219.83613 C 269.2325,217.45409 270.79821,216.19009 271.59829,214.758 z" style="fill:#454a8c;fill-opacity:1;fill-rule:evenodd;stroke:none;stroke-width:1px;stroke-linecap:butt;stroke-linejoin:miter;stroke-opacity:1"/>
<path d="M 260.66079,177.64859 L 248.29099,182.98714 C 248.25812,183.90439 247.90357,188.41915 244.64516,190.92986 C 248.16887,189.41994 251.65887,187.85906 255.19203,186.37256 C 259.73941,184.48143 260.53041,179.36535 260.66079,177.64859 z M 241.78057,192.23194 C 241.18086,192.38665 240.5437,192.5829 239.82745,192.62257 C 240.55753,192.58498 241.17153,192.39407 241.78057,192.23194 z" style="fill:#454a8c;fill-opacity:1;fill-rule:evenodd;stroke:none;stroke-width:1px;stroke-linecap:butt;stroke-linejoin:miter;stroke-opacity:1"/>
<path d="M 230,350 A 10,10 0 1 1 210,350 A 10,10 0 1 1 230,350 z" style="fill:#f8070e;fill-opacity:1;fill-rule:evenodd;stroke:none;stroke-opacity:1" transform="matrix(0.4323576,9.6536981e-2,0,0.4453979,115.11522,46.215121)"/>
</g>
</svg>
